<?xml version="1.0" encoding="UTF-8"?> <!-- Creator: CorelDRAW Standard 2020 (Оценочная версия) --> <svg xmlns="http://www.w3.org/2000/svg" xmlns:xlink="http://www.w3.org/1999/xlink" xmlns:xodm="http://www.corel.com/coreldraw/odm/2003" xml:space="preserve" width="241.666mm" height="96.7122mm" style="shape-rendering:geometricPrecision; text-rendering:geometricPrecision; image-rendering:optimizeQuality; fill-rule:evenodd; clip-rule:evenodd" viewBox="0 0 4564.64 1826.72"> <defs> <style type="text/css"> <![CDATA[ .str0 {stroke:#00AFEF;stroke-width:1.44;stroke-miterlimit:22.9256} .fil0 {fill:#00AFEF} .fil1 {fill:#FEFEFE;fill-rule:nonzero} ]]> </style> </defs> <g id="Слой_x0020_1"> <metadata id="CorelCorpID_0Corel-Layer"></metadata> <g id="_790300104"> <polygon class="fil0 str0" points="0.72,0.72 4563.92,0.72 4563.92,1826 0.72,1826 "></polygon> <path class="fil1" d="M201.25 1608.41l0 -254.62c149.91,56.5 319.45,84.75 508.27,84.75 229.5,0 344.08,-77.51 344.08,-233.25 0,-113.37 -70.31,-169.87 -211.3,-169.87l-234.15 0c-306.25,0 -459.01,-141.26 -459.01,-424.49 0,-311.12 217.73,-466.87 653.54,-466.87 167.4,0 325.88,24.99 475.78,74.25l0 254.62c-149.91,-56.5 -308.38,-84.75 -475.78,-84.75 -250.92,0 -376.56,74.25 -376.56,222.75 0,113.37 60.68,169.87 182.03,169.87l234.15 0c325.52,0 488.28,141.62 488.28,424.49 0,318.37 -207.02,477.37 -621.05,477.37 -188.82,0 -358.36,-24.63 -508.27,-74.25zm2556.68 -6.16c-120.64,53.6 -271.27,80.41 -452.59,80.41 -527.9,0 -791.67,-263.32 -791.67,-790.31 0,-498.74 268.41,-748.29 805.23,-748.29 163.83,0 310.17,24.99 439.02,74.25l0 254.62c-128.85,-56.5 -268.41,-84.75 -418.32,-84.75 -358.71,0 -538.25,168.06 -538.25,504.17 0,364.37 169.19,546.19 507.91,546.19 50.33,0 107.44,-8.33 171.68,-25.35l0 -441.51 276.98 0 0 630.58zm538.61 -1447.69l0 1517.59 -276.98 0 0 -1517.59 276.98 0zm1051.87 0l-637.83 708.09 704.93 809.5 -384.06 0 -578.22 -708.81 0 -182.55 556.45 -626.23 338.72 0z"></path> </g> </g> </svg> 