<svg width="254" height="51" viewBox="0 0 254 51" fill="none" xmlns="http://www.w3.org/2000/svg">
<path d="M9.84277 36.4286L11.9222 30.8775H33.41L35.4894 36.4286H9.84277ZM22.5275 13.3918L14.3483 32.6816L13.7937 33.9306L6.58495 51H0L22.5275 -1.52588e-05L45.055 51H38.47L31.3998 34.3469L30.8453 32.9592L22.5275 13.3918Z" fill="white"/>
<path fill-rule="evenodd" clip-rule="evenodd" d="M71.7386 2.42855H74.9965H77.6304H86.2948C91.0083 2.42855 95.1903 3.44624 98.8409 5.48162C102.492 7.51699 105.357 10.3619 107.436 14.0163C107.861 14.7535 108.242 15.5168 108.58 16.3061C108.717 16.626 108.847 16.9502 108.97 17.2787L103.215 18.7523C102.346 16.6284 101.142 14.8185 99.6034 13.3224C97.986 11.7034 96.0452 10.4775 93.7809 9.64488C91.5166 8.76597 89.0213 8.32652 86.2948 8.32652H77.6304V25.3034L71.7386 26.812V25.8877V2.42855ZM71.7386 27.9637V28.809V51H74.9965H77.6304H86.2948C91.0083 51 95.1903 49.9823 98.8409 47.9469C102.492 45.9115 105.357 43.0898 107.436 39.4816C109.515 35.8272 110.555 31.5714 110.555 26.7143C110.555 25.3143 110.469 23.9662 110.296 22.67C110.243 22.2731 110.182 21.881 110.113 21.4938L104.296 22.4746C104.541 23.8104 104.663 25.2236 104.663 26.7143C104.663 29.536 104.224 32.0803 103.346 34.3469C102.468 36.6136 101.221 38.5564 99.6034 40.1755C97.986 41.7483 96.0452 42.9741 93.7809 43.853C91.5166 44.6857 89.0213 45.102 86.2948 45.102H77.6304V26.9703L71.7386 27.9637Z" fill="white"/>
<path d="M144.277 36.4286L146.356 30.8775H167.844L169.923 36.4286H144.277ZM156.961 13.3918L148.782 32.6816L148.228 33.9306L141.019 51H134.434L156.961 -1.52588e-05L179.489 51H172.904L165.834 34.3469L165.279 32.9592L156.961 13.3918Z" fill="white"/>
<path d="M212.896 18.1796L209.292 51H203.4L209.292 -1.52588e-05L228.7 35.1796L248.108 -1.52588e-05L254 51H248.108L244.504 18.1796L228.7 46.4898L212.896 18.1796Z" fill="white"/>
<path d="M67.7857 27.8242L71.7386 26.812V25.8877L67.7857 27.8242Z" fill="white"/>
<path d="M71.7386 27.9637L69.8424 28.2834L71.7386 28.809V27.9637Z" fill="white"/>
<path d="M108.58 16.3061C108.717 16.626 108.847 16.9502 108.97 17.2787L118.75 14.7745C116.019 15.285 110.162 16.3061 108.58 16.3061Z" fill="white"/>
<path d="M110.296 22.67L114.85 20.6952L110.113 21.4938C110.182 21.881 110.243 22.2731 110.296 22.67Z" fill="white"/>
</svg>
